<svg xmlns="http://www.w3.org/2000/svg"  width="300" height="48"><defs id="SvgjsDefs12080"><linearGradient id="SvgjsLinearGradientauBAZ1EMO" gradientUnits="userSpaceOnUse" x1="44" y1="0" x2="44" y2="100"><stop id="SvgjsStop12083" stop-color="#63c4f8" offset="0"/><stop id="SvgjsStop12084" stop-color="#03587f" offset="0.95"/></linearGradient><linearGradient id="SvgjsLinearGradientjK8Oyw_b3h" gradientUnits="userSpaceOnUse" x1="0.581984177656692" y1="3.833561567355469" x2="-0.041984177656670965" y2="-31.91356156735544"><stop id="SvgjsStop12088" stop-color="#63c4f8" offset="0"/><stop id="SvgjsStop12089" stop-color="#03587f" offset="1"/></linearGradient></defs><g transform="scale(0.6409965741314516)" opacity="1"><g transform="translate(-0.5246414632456511, 7.105427357601002e-15) scale(0.750560033255583)" fill="url(#SvgjsLinearGradientauBAZ1EMO)"><path d="M44 0l43.301 25v50L44 100 .699 75V25z"/></g><g id="SvgjsG12086" class="rcO8NWfhUK" transform="translate(15.5, 20.528001662779218) scale(1.0625)" light-content="true" fill="#ffffff"><path d="M16 1c8.271 0 15 6.729 15 15s-6.729 15-15 15S1 24.271 1 16 7.729 1 16 1m0-1C7.163 0 0 7.163 0 16s7.163 16 16 16 16-7.163 16-16S24.837 0 16 0z"/><path d="M16 7.82l7.125 4.092v8.176L16 24.18l-7.125-4.092v-8.176L16 7.82m0-1.153l-8.125 4.667v9.333L16 25.333l8.125-4.667v-9.333L16 6.667z"/></g><g id="SvgjsG12090" class="text" transform="translate(278.75121587818126, 52.53885218243897) scale(1)" light-content="false" fill="url(#SvgjsLinearGradientjK8Oyw_b3h)"><path d="M-167.85 -28.28C-169.29 -28.51 -170.67 -28.62 -171.99 -28.62C-174.93 -28.62 -177.68 -28.02 -180.25 -26.82C-182.81 -25.62 -184.87 -23.93 -186.41 -21.73C-187.96 -19.55 -188.73 -17.03 -188.73 -14.17C-188.73 -11.74 -188.15 -9.41 -187 -7.18C-185.84 -4.94 -184.04 -3.1 -181.57 -1.64C-179.12 -0.19 -176.06 0.54 -172.39 0.54C-169.58 0.54 -166.83 0.05 -164.16 -0.94C-163.89 -1.07 -163.72 -1.18 -163.64 -1.28C-163.57 -1.39 -163.5 -1.62 -163.44 -1.98L-162.76 -8.1C-162.76 -8.19 -162.85 -8.25 -163.01 -8.28C-163.18 -8.31 -163.27 -8.27 -163.3 -8.14C-164.5 -5.53 -165.86 -3.59 -167.38 -2.32C-168.89 -1.04 -170.61 -0.4 -172.53 -0.4C-174.57 -0.4 -176.39 -1.07 -178 -2.41C-179.6 -3.74 -180.85 -5.55 -181.73 -7.83C-182.62 -10.11 -183.06 -12.63 -183.06 -15.39C-183.06 -19.08 -182.25 -22.02 -180.63 -24.21C-179.01 -26.4 -176.71 -27.49 -173.74 -27.49C-171.49 -27.49 -169.51 -26.85 -167.8 -25.56C-166.09 -24.27 -164.73 -22.44 -163.71 -20.07C-163.68 -19.95 -163.59 -19.91 -163.44 -19.93C-163.29 -19.96 -163.21 -20.02 -163.21 -20.11L-163.75 -26.37C-163.81 -26.7 -163.88 -26.93 -163.96 -27.07C-164.03 -27.2 -164.2 -27.31 -164.47 -27.4C-165.28 -27.76 -166.41 -28.06 -167.85 -28.28Z M-135.76 -26.71C-137.99 -27.98 -140.8 -28.62 -144.22 -28.62C-147.26 -28.62 -150.15 -28.14 -152.91 -27.18C-153.18 -27.06 -153.34 -26.94 -153.4 -26.82C-153.46 -26.7 -153.53 -26.46 -153.58 -26.1L-154.26 -19.98C-154.26 -19.92 -154.18 -19.87 -154.03 -19.84C-153.89 -19.82 -153.8 -19.84 -153.76 -19.93C-152.53 -22.52 -151.1 -24.45 -149.47 -25.74C-147.83 -27.03 -146.07 -27.67 -144.18 -27.67C-141.57 -27.67 -139.46 -26.54 -137.83 -24.28C-136.21 -22.01 -135.3 -18.97 -135.09 -15.16L-140.26 -15.16C-141.82 -15.16 -143.13 -15.54 -144.18 -16.29C-145.23 -17.04 -145.75 -17.98 -145.75 -19.12C-145.75 -19.19 -145.84 -19.21 -146.02 -19.21C-146.21 -19.21 -146.29 -19.19 -146.29 -19.12C-146.29 -18.44 -146.26 -17.52 -146.21 -16.38L-146.16 -13.99L-146.21 -9.4C-146.21 -9.35 -146.12 -9.31 -145.96 -9.31C-145.79 -9.31 -145.71 -9.35 -145.71 -9.4C-145.71 -10.66 -145.19 -11.73 -144.16 -12.6C-143.12 -13.47 -141.84 -13.9 -140.31 -13.9L-135.04 -13.9L-135.04 -13.59C-135.04 -9.63 -135.77 -6.48 -137.23 -4.14C-138.68 -1.8 -140.8 -0.63 -143.59 -0.63C-145.75 -0.63 -147.77 -1.3 -149.65 -2.65C-151.52 -4 -152.93 -5.8 -153.85 -8.05C-153.88 -8.14 -153.98 -8.18 -154.15 -8.17C-154.31 -8.15 -154.4 -8.1 -154.4 -8.01L-153.81 -1.75C-153.78 -1.43 -153.72 -1.19 -153.63 -1.06C-153.54 -0.92 -153.38 -0.8 -153.13 -0.67C-152.3 -0.35 -151.07 -0.06 -149.47 0.18C-147.86 0.42 -146.44 0.54 -145.21 0.54C-142.4 0.54 -139.78 -0.1 -137.36 -1.39C-134.95 -2.68 -133.01 -4.5 -131.56 -6.84C-130.1 -9.18 -129.37 -11.85 -129.37 -14.85C-129.37 -17.31 -129.88 -19.58 -130.9 -21.67C-131.93 -23.75 -133.55 -25.43 -135.76 -26.71Z M-89.59 -0.27C-89.59 -0.45 -89.64 -0.54 -89.73 -0.54C-90.78 -0.54 -91.54 -0.62 -92.02 -0.76C-92.5 -0.91 -92.83 -1.21 -92.99 -1.64C-93.16 -2.08 -93.24 -2.74 -93.24 -3.64L-93.24 -24.48C-93.24 -25.38 -93.16 -26.04 -92.99 -26.46C-92.83 -26.88 -92.5 -27.17 -92 -27.34C-91.51 -27.5 -90.75 -27.58 -89.73 -27.58C-89.64 -27.58 -89.59 -27.67 -89.59 -27.85C-89.59 -28.03 -89.64 -28.12 -89.73 -28.12L-92.25 -28.08C-93.75 -28.02 -94.9 -27.99 -95.71 -27.99C-96.92 -27.99 -98.27 -28.02 -99.76 -28.08L-101.97 -28.12C-102.06 -28.12 -102.1 -28.03 -102.1 -27.85C-102.1 -27.67 -102.06 -27.58 -101.97 -27.58C-100.86 -27.58 -100.05 -27.49 -99.54 -27.31C-99.03 -27.13 -98.68 -26.83 -98.5 -26.39C-98.32 -25.96 -98.23 -25.29 -98.23 -24.39L-98.23 -15.25L-112.77 -15.25L-112.77 -24.39C-112.77 -25.29 -112.67 -25.96 -112.48 -26.39C-112.28 -26.83 -111.93 -27.13 -111.42 -27.31C-110.91 -27.49 -110.11 -27.58 -109.03 -27.58C-108.97 -27.58 -108.94 -27.67 -108.94 -27.85C-108.94 -28.03 -108.97 -28.12 -109.03 -28.12L-111.51 -28.08C-113.01 -28.02 -114.33 -27.99 -115.47 -27.99C-116.31 -27.99 -117.42 -28.02 -118.8 -28.08L-121.23 -28.12C-121.32 -28.12 -121.36 -28.03 -121.36 -27.85C-121.36 -27.67 -121.32 -27.58 -121.23 -27.58C-120.21 -27.58 -119.47 -27.5 -119 -27.34C-118.54 -27.17 -118.21 -26.88 -118.03 -26.46C-117.85 -26.04 -117.76 -25.38 -117.76 -24.48L-117.76 -3.64C-117.76 -2.74 -117.85 -2.08 -118.03 -1.64C-118.21 -1.21 -118.55 -0.91 -119.02 -0.76C-119.5 -0.62 -120.27 -0.54 -121.32 -0.54C-121.38 -0.54 -121.41 -0.45 -121.41 -0.27C-121.41 -0.09 -121.38 0 -121.32 0C-120.27 0 -119.45 -0.01 -118.84 -0.04L-115.47 -0.09L-111.55 -0.04C-110.92 -0.01 -110.09 0 -109.03 0C-108.97 0 -108.94 -0.09 -108.94 -0.27C-108.94 -0.45 -108.97 -0.54 -109.03 -0.54C-110.14 -0.54 -110.95 -0.62 -111.46 -0.76C-111.97 -0.91 -112.32 -1.21 -112.5 -1.64C-112.68 -2.08 -112.77 -2.74 -112.77 -3.64L-112.77 -13.99L-98.23 -13.99L-98.23 -3.64C-98.23 -2.72 -98.32 -2.04 -98.5 -1.62C-98.68 -1.2 -99.03 -0.91 -99.54 -0.76C-100.05 -0.62 -100.86 -0.54 -101.97 -0.54C-102.06 -0.54 -102.1 -0.45 -102.1 -0.27C-102.1 -0.09 -102.06 0 -101.97 0C-101.04 0 -100.3 -0.01 -99.76 -0.04L-95.71 -0.09L-92.25 -0.04C-91.62 -0.01 -90.78 0 -89.73 0C-89.64 0 -89.59 -0.09 -89.59 -0.27Z M-60.7 -28.28C-62.14 -28.51 -63.52 -28.62 -64.84 -28.62C-67.79 -28.62 -70.54 -28.02 -73.1 -26.82C-75.67 -25.62 -77.72 -23.93 -79.27 -21.73C-80.81 -19.55 -81.58 -17.03 -81.58 -14.17C-81.59 -11.74 -81.01 -9.41 -79.85 -7.18C-78.7 -4.94 -76.89 -3.1 -74.43 -1.64C-71.97 -0.19 -68.91 0.54 -65.25 0.54C-62.43 0.54 -59.69 0.05 -57.01 -0.94C-56.74 -1.07 -56.57 -1.18 -56.5 -1.28C-56.42 -1.39 -56.35 -1.62 -56.29 -1.98L-55.62 -8.1C-55.62 -8.19 -55.7 -8.25 -55.87 -8.28C-56.03 -8.31 -56.13 -8.27 -56.16 -8.14C-57.36 -5.53 -58.72 -3.59 -60.23 -2.32C-61.75 -1.04 -63.47 -0.4 -65.38 -0.4C-67.43 -0.4 -69.25 -1.07 -70.85 -2.41C-72.46 -3.74 -73.7 -5.55 -74.59 -7.83C-75.47 -10.11 -75.91 -12.63 -75.91 -15.39C-75.91 -19.08 -75.1 -22.02 -73.48 -24.21C-71.86 -26.4 -69.57 -27.49 -66.6 -27.49C-64.35 -27.49 -62.37 -26.85 -60.66 -25.56C-58.95 -24.27 -57.59 -22.44 -56.56 -20.07C-56.53 -19.95 -56.44 -19.91 -56.29 -19.93C-56.15 -19.96 -56.07 -20.02 -56.07 -20.11L-56.61 -26.37C-56.67 -26.7 -56.74 -26.93 -56.81 -27.07C-56.89 -27.2 -57.06 -27.31 -57.33 -27.4C-58.14 -27.76 -59.26 -28.06 -60.7 -28.28Z M-40.16 -1.42C-37.99 -0.11 -35.5 0.54 -32.71 0.54C-29.9 0.54 -27.28 -0.12 -24.86 -1.44C-22.45 -2.76 -20.52 -4.56 -19.08 -6.84C-17.64 -9.12 -16.92 -11.63 -16.92 -14.35C-16.92 -16.81 -17.5 -19.14 -18.65 -21.33C-19.81 -23.52 -21.46 -25.28 -23.62 -26.62C-25.78 -27.95 -28.29 -28.62 -31.14 -28.62C-33.69 -28.62 -36.19 -28.07 -38.63 -26.95C-41.08 -25.84 -43.08 -24.19 -44.64 -21.98C-46.2 -19.78 -46.98 -17.13 -46.98 -14.04C-46.98 -11.4 -46.39 -8.96 -45.2 -6.73C-44.02 -4.49 -42.34 -2.72 -40.16 -1.42ZM-26.71 -2.05C-28.04 -1.07 -29.55 -0.58 -31.23 -0.58C-33.18 -0.58 -34.93 -1.23 -36.47 -2.52C-38.02 -3.81 -39.23 -5.6 -40.12 -7.9C-41 -10.19 -41.44 -12.79 -41.44 -15.7C-41.44 -19.39 -40.71 -22.27 -39.24 -24.32C-37.77 -26.38 -35.67 -27.4 -32.94 -27.4C-30.81 -27.4 -28.95 -26.79 -27.36 -25.56C-25.77 -24.33 -24.56 -22.63 -23.71 -20.45C-22.87 -18.28 -22.45 -15.81 -22.45 -13.05C-22.45 -10.44 -22.83 -8.2 -23.58 -6.32C-24.33 -4.45 -25.37 -3.02 -26.71 -2.05Z M22.28 -0.27C22.28 -0.45 22.23 -0.54 22.14 -0.54C21.12 -0.54 20.37 -0.62 19.89 -0.76C19.41 -0.91 19.08 -1.21 18.9 -1.64C18.72 -2.08 18.63 -2.74 18.63 -3.64L18.63 -23.94C18.63 -25.29 18.86 -26.23 19.33 -26.77C19.79 -27.31 20.73 -27.58 22.14 -27.58C22.23 -27.58 22.28 -27.67 22.28 -27.85C22.28 -28.03 22.23 -28.12 22.14 -28.12L20.66 -28.12C15.43 -28.03 10.83 -27.99 6.84 -27.99C2.43 -27.99 -1.78 -28.02 -5.8 -28.08C-6.77 -28.11 -7.76 -28.12 -8.77 -28.12C-8.86 -28.12 -8.91 -28.03 -8.91 -27.85C-8.91 -27.67 -8.86 -27.58 -8.77 -27.58C-7.36 -27.58 -6.43 -27.31 -5.98 -26.77C-5.53 -26.23 -5.31 -25.29 -5.31 -23.94L-5.31 -3.64C-5.31 -2.74 -5.4 -2.08 -5.58 -1.64C-5.76 -1.21 -6.09 -0.91 -6.57 -0.76C-7.05 -0.62 -7.81 -0.54 -8.86 -0.54C-8.92 -0.54 -8.95 -0.45 -8.95 -0.27C-8.95 -0.09 -8.92 0 -8.86 0C-7.85 0 -7.04 -0.01 -6.43 -0.04L-3.1 -0.09L0.63 -0.04C1.26 -0.01 2.1 0 3.15 0C3.24 0 3.29 -0.09 3.29 -0.27C3.29 -0.45 3.24 -0.54 3.15 -0.54C2.1 -0.54 1.34 -0.62 0.88 -0.76C0.41 -0.91 0.1 -1.2 -0.07 -1.62C-0.23 -2.04 -0.31 -2.71 -0.31 -3.64L-0.31 -23.94C-0.31 -24.96 -0.28 -25.64 -0.2 -25.96C-0.13 -26.29 0.06 -26.5 0.36 -26.59C0.66 -26.68 1.26 -26.73 2.16 -26.73L11.39 -26.73C12.2 -26.73 12.74 -26.68 13.01 -26.59C13.27 -26.5 13.45 -26.29 13.52 -25.96C13.6 -25.64 13.64 -24.96 13.64 -23.94L13.64 -3.64C13.64 -2.74 13.55 -2.08 13.39 -1.64C13.22 -1.21 12.9 -0.91 12.42 -0.76C11.94 -0.62 11.19 -0.54 10.17 -0.54C10.08 -0.54 10.04 -0.45 10.04 -0.27C10.04 -0.09 10.08 0 10.17 0C11.22 0 12.06 -0.01 12.69 -0.04L16.43 -0.09L19.71 -0.04C20.31 -0.01 21.12 0 22.14 0C22.23 0 22.28 -0.09 22.28 -0.27Z M38.12 -1.73C37.9 -2.17 37.8 -2.86 37.8 -3.82L37.8 -24.39C37.8 -25.53 37.95 -26.29 38.25 -26.68C38.55 -27.08 39.12 -27.27 39.96 -27.27C41.88 -27.27 43.34 -26.63 44.35 -25.33C45.35 -24.04 45.86 -22.21 45.86 -19.84C45.86 -17.48 45.4 -15.64 44.48 -14.35C43.57 -13.07 42.42 -12.42 41.04 -12.42C40.47 -12.42 39.96 -12.48 39.51 -12.6C39.45 -12.63 39.4 -12.6 39.35 -12.51C39.31 -12.42 39.29 -12.33 39.29 -12.24C39.29 -12.09 39.32 -12.01 39.38 -12.01C39.98 -11.86 40.68 -11.79 41.49 -11.79C43.08 -11.79 44.63 -12.12 46.15 -12.78C47.66 -13.44 48.9 -14.41 49.86 -15.7C50.82 -16.99 51.3 -18.57 51.3 -20.43C51.3 -23.1 50.42 -25.07 48.65 -26.35C46.87 -27.62 44.46 -28.26 41.4 -28.26C40.62 -28.26 39.93 -28.25 39.33 -28.21C38.73 -28.19 38.24 -28.16 37.85 -28.12C36.86 -28.03 36 -27.99 35.28 -27.99C34.47 -27.99 33.37 -28.02 32 -28.08L29.61 -28.12C29.52 -28.12 29.48 -28.03 29.48 -27.85C29.48 -27.67 29.52 -27.58 29.61 -27.58C30.54 -27.58 31.23 -27.5 31.68 -27.34C32.13 -27.17 32.43 -26.88 32.58 -26.46C32.73 -26.04 32.81 -25.38 32.81 -24.48L32.81 -3.64C32.81 -2.74 32.73 -2.08 32.58 -1.64C32.43 -1.21 32.14 -0.91 31.7 -0.76C31.27 -0.62 30.57 -0.54 29.61 -0.54C29.52 -0.54 29.48 -0.45 29.48 -0.27C29.48 -0.09 29.52 0 29.61 0C30.63 0 31.44 -0.01 32.04 -0.04L35.33 -0.09L39.24 -0.04C39.93 -0.01 40.89 0 42.12 0C42.21 0 42.26 -0.09 42.26 -0.27C42.26 -0.45 42.21 -0.54 42.12 -0.54C40.83 -0.54 39.89 -0.63 39.31 -0.81C38.72 -0.99 38.33 -1.3 38.12 -1.73Z M90 -0.27C90 -0.45 89.95 -0.54 89.87 -0.54C88.85 -0.54 88.1 -0.62 87.62 -0.76C87.13 -0.91 86.81 -1.21 86.62 -1.64C86.45 -2.08 86.35 -2.74 86.35 -3.64L86.35 -24.48C86.35 -25.38 86.45 -26.04 86.62 -26.46C86.81 -26.88 87.13 -27.17 87.62 -27.34C88.1 -27.5 88.84 -27.58 89.87 -27.58C89.95 -27.58 90 -27.67 90 -27.85C90 -28.03 89.95 -28.12 89.87 -28.12L87.34 -28.08C85.85 -28.02 84.69 -27.99 83.88 -27.99C82.68 -27.99 81.33 -28.02 79.83 -28.08L77.62 -28.12C77.54 -28.12 77.49 -28.03 77.49 -27.85C77.49 -27.67 77.54 -27.58 77.62 -27.58C78.73 -27.58 79.54 -27.49 80.05 -27.31C80.56 -27.13 80.91 -26.83 81.09 -26.39C81.27 -25.96 81.36 -25.29 81.36 -24.39L81.36 -22.5L67.36 -7.56L67.36 -24.39C67.36 -25.29 67.46 -25.96 67.66 -26.39C67.85 -26.83 68.2 -27.13 68.71 -27.31C69.23 -27.49 70.02 -27.58 71.1 -27.58C71.16 -27.58 71.19 -27.67 71.19 -27.85C71.19 -28.03 71.16 -28.12 71.1 -28.12L68.62 -28.08C67.13 -28.02 65.8 -27.99 64.66 -27.99C63.82 -27.99 62.71 -28.02 61.33 -28.08L58.9 -28.12C58.81 -28.12 58.77 -28.03 58.77 -27.85C58.77 -27.67 58.81 -27.58 58.9 -27.58C59.92 -27.58 60.67 -27.5 61.13 -27.34C61.6 -27.17 61.92 -26.88 62.1 -26.46C62.28 -26.04 62.37 -25.38 62.37 -24.48L62.37 -3.64C62.37 -2.74 62.28 -2.08 62.1 -1.64C61.92 -1.21 61.59 -0.91 61.11 -0.76C60.63 -0.62 59.87 -0.54 58.81 -0.54C58.76 -0.54 58.72 -0.45 58.72 -0.27C58.72 -0.09 58.76 0 58.81 0C59.87 0 60.69 -0.01 61.29 -0.04L64.66 -0.09L68.58 -0.04C69.21 -0.01 70.05 0 71.1 0C71.16 0 71.19 -0.09 71.19 -0.27C71.19 -0.45 71.16 -0.54 71.1 -0.54C69.99 -0.54 69.18 -0.62 68.67 -0.76C68.16 -0.91 67.82 -1.21 67.63 -1.64C67.45 -2.08 67.36 -2.74 67.36 -3.64L67.36 -5.71L81.36 -20.7L81.36 -3.64C81.36 -2.72 81.27 -2.04 81.09 -1.62C80.91 -1.2 80.56 -0.91 80.05 -0.76C79.54 -0.62 78.73 -0.54 77.62 -0.54C77.54 -0.54 77.49 -0.45 77.49 -0.27C77.49 -0.09 77.54 0 77.62 0C78.55 0 79.29 -0.01 79.83 -0.04L83.88 -0.09L87.34 -0.04C87.98 -0.01 88.82 0 89.87 0C89.95 0 90 -0.09 90 -0.27Z M117.2 -13.9C115.18 -15.23 112.62 -15.88 109.53 -15.88C108.33 -15.88 107.13 -15.79 105.93 -15.61L105.93 -24.21C105.93 -25.32 106.1 -26.08 106.45 -26.48C106.79 -26.89 107.44 -27.09 108.41 -27.09L110.3 -27.09C112.1 -27.09 113.6 -26.51 114.82 -25.36C116.03 -24.2 116.87 -22.47 117.32 -20.16C117.38 -20.07 117.48 -20.02 117.63 -20.02C117.78 -20.02 117.85 -20.07 117.85 -20.16L117.49 -27C117.49 -27.51 117.44 -27.82 117.34 -27.94C117.23 -28.07 116.97 -28.12 116.55 -28.12L97.7 -28.12C97.64 -28.12 97.6 -28.03 97.6 -27.85C97.6 -27.67 97.64 -27.58 97.7 -27.58C98.62 -27.58 99.32 -27.5 99.77 -27.34C100.22 -27.17 100.51 -26.88 100.67 -26.46C100.82 -26.04 100.89 -25.38 100.89 -24.48L100.89 -3.64C100.89 -2.74 100.81 -2.08 100.64 -1.64C100.48 -1.21 100.18 -0.91 99.74 -0.76C99.31 -0.62 98.61 -0.54 97.65 -0.54C97.56 -0.54 97.52 -0.45 97.52 -0.27C97.52 -0.09 97.56 0 97.65 0C98.67 0 99.48 -0.01 100.08 -0.04L103.37 -0.09C104.14 -0.09 104.86 -0.08 105.5 -0.04C106.15 -0.01 106.7 0.01 107.15 0.05C108.29 0.14 109.26 0.18 110.07 0.18C111.99 0.18 113.73 -0.19 115.29 -0.92C116.85 -1.66 118.06 -2.66 118.94 -3.94C119.8 -5.21 120.24 -6.63 120.24 -8.19C120.24 -10.68 119.23 -12.58 117.2 -13.9ZM113.58 -2.5C112.65 -1.46 111.2 -0.94 109.21 -0.94C107.89 -0.94 107.02 -1.17 106.58 -1.62C106.15 -2.07 105.93 -2.74 105.93 -3.64L105.93 -14.44C106.56 -14.56 107.24 -14.62 107.96 -14.62C110.18 -14.62 111.9 -14.01 113.13 -12.78C114.36 -11.55 114.98 -9.64 114.98 -7.06C114.98 -5.05 114.51 -3.53 113.58 -2.5Z M136.1 -1.42C138.28 -0.11 140.76 0.54 143.55 0.54C146.37 0.54 148.99 -0.12 151.4 -1.44C153.82 -2.76 155.75 -4.56 157.19 -6.84C158.63 -9.12 159.35 -11.63 159.35 -14.35C159.35 -16.81 158.77 -19.14 157.61 -21.33C156.46 -23.52 154.8 -25.28 152.64 -26.62C150.48 -27.95 147.98 -28.62 145.13 -28.62C142.58 -28.62 140.08 -28.07 137.63 -26.95C135.19 -25.84 133.19 -24.19 131.63 -21.98C130.07 -19.78 129.29 -17.13 129.29 -14.04C129.29 -11.4 129.88 -8.96 131.06 -6.73C132.25 -4.49 133.93 -2.72 136.1 -1.42ZM149.56 -2.05C148.22 -1.07 146.72 -0.58 145.04 -0.58C143.09 -0.58 141.34 -1.23 139.79 -2.52C138.25 -3.81 137.03 -5.6 136.15 -7.9C135.26 -10.19 134.82 -12.79 134.82 -15.7C134.82 -19.39 135.55 -22.27 137.03 -24.32C138.5 -26.38 140.6 -27.4 143.32 -27.4C145.46 -27.4 147.31 -26.79 148.91 -25.56C150.49 -24.33 151.71 -22.63 152.55 -20.45C153.39 -18.28 153.81 -15.81 153.81 -13.05C153.81 -10.44 153.44 -8.2 152.69 -6.32C151.94 -4.45 150.89 -3.02 149.56 -2.05Z M176.09 -1.73C175.87 -2.17 175.77 -2.86 175.77 -3.82L175.77 -24.39C175.77 -25.53 175.92 -26.29 176.22 -26.68C176.52 -27.08 177.09 -27.27 177.93 -27.27C179.85 -27.27 181.31 -26.63 182.32 -25.33C183.32 -24.04 183.83 -22.21 183.83 -19.84C183.83 -17.48 183.37 -15.64 182.45 -14.35C181.54 -13.07 180.39 -12.42 179.01 -12.42C178.44 -12.42 177.93 -12.48 177.48 -12.6C177.42 -12.63 177.37 -12.6 177.32 -12.51C177.28 -12.42 177.26 -12.33 177.26 -12.24C177.26 -12.09 177.29 -12.01 177.35 -12.01C177.95 -11.86 178.65 -11.79 179.46 -11.79C181.05 -11.79 182.6 -12.12 184.12 -12.78C185.63 -13.44 186.87 -14.41 187.83 -15.7C188.79 -16.99 189.27 -18.57 189.27 -20.43C189.27 -23.1 188.39 -25.07 186.62 -26.35C184.84 -27.62 182.43 -28.26 179.37 -28.26C178.59 -28.26 177.9 -28.25 177.3 -28.21C176.7 -28.19 176.21 -28.16 175.82 -28.12C174.83 -28.03 173.97 -27.99 173.25 -27.99C172.44 -27.99 171.34 -28.02 169.97 -28.08L167.58 -28.12C167.49 -28.12 167.45 -28.03 167.45 -27.85C167.45 -27.67 167.49 -27.58 167.58 -27.58C168.51 -27.58 169.2 -27.5 169.65 -27.34C170.1 -27.17 170.4 -26.88 170.55 -26.46C170.7 -26.04 170.78 -25.38 170.78 -24.48L170.78 -3.64C170.78 -2.74 170.7 -2.08 170.55 -1.64C170.4 -1.21 170.11 -0.91 169.67 -0.76C169.24 -0.62 168.54 -0.54 167.58 -0.54C167.49 -0.54 167.45 -0.45 167.45 -0.27C167.45 -0.09 167.49 0 167.58 0C168.6 0 169.41 -0.01 170.01 -0.04L173.3 -0.09L177.21 -0.04C177.9 -0.01 178.86 0 180.09 0C180.18 0 180.23 -0.09 180.23 -0.27C180.23 -0.45 180.18 -0.54 180.09 -0.54C178.8 -0.54 177.86 -0.63 177.28 -0.81C176.69 -0.99 176.3 -1.3 176.09 -1.73Z"/></g></g></svg>