<svg xmlns="http://www.w3.org/2000/svg" width="300" height="48"><defs id="SvgjsDefs12211"/><g id="SvgjsG12212" transform="scale(0.6493506493506493)" opacity="1"><g id="SvgjsG12213" class="USUrf2N0u" transform="translate(-0.5178918061051723, 7.105427357601002e-15) scale(0.7409038713950983)" light-content="false" fill="#ffffff"><path d="M44 0l43.301 25v50L44 100 .699 75V25z"/></g><g id="SvgjsG12214" class="6182HbIdnj" transform="translate(15.300588224517753, 20.263903258993565) scale(1.0488306444225877)" light-content="true" fill="#0b2c45"><path d="M16 1c8.271 0 15 6.729 15 15s-6.729 15-15 15S1 24.271 1 16 7.729 1 16 1m0-1C7.163 0 0 7.163 0 16s7.163 16 16 16 16-7.163 16-16S24.837 0 16 0z"/><path d="M16 7.82l7.125 4.092v8.176L16 24.18l-7.125-4.092v-8.176L16 7.82m0-1.153l-8.125 4.667v9.333L16 25.333l8.125-4.667v-9.333L16 6.667z"/></g><g id="SvgjsG12215" class="text" transform="translate(275.1630681046755, 51.86112955139396) scale(1)" light-content="false" fill="#ffffff"><path d="M-165.69 -27.92C-167.11 -28.14 -168.47 -28.25 -169.78 -28.25C-172.68 -28.25 -175.4 -27.66 -177.93 -26.47C-180.46 -25.29 -182.49 -23.62 -184.01 -21.46C-185.54 -19.29 -186.3 -16.81 -186.3 -13.99C-186.3 -11.59 -185.73 -9.29 -184.59 -7.09C-183.45 -4.88 -181.67 -3.06 -179.24 -1.62C-176.81 -0.19 -173.79 0.53 -170.18 0.53C-167.39 0.53 -164.68 0.04 -162.05 -0.93C-161.78 -1.05 -161.61 -1.16 -161.54 -1.27C-161.46 -1.37 -161.4 -1.6 -161.34 -1.95L-160.67 -8C-160.67 -8.08 -160.75 -8.14 -160.92 -8.17C-161.08 -8.2 -161.17 -8.16 -161.2 -8.04C-162.39 -5.46 -163.73 -3.55 -165.22 -2.29C-166.72 -1.03 -168.42 -0.4 -170.31 -0.4C-172.32 -0.4 -174.12 -1.06 -175.71 -2.38C-177.29 -3.69 -178.52 -5.48 -179.39 -7.73C-180.27 -9.98 -180.7 -12.47 -180.7 -15.19C-180.7 -18.83 -179.91 -21.74 -178.31 -23.9C-176.71 -26.06 -174.44 -27.14 -171.51 -27.14C-169.29 -27.14 -167.33 -26.5 -165.65 -25.23C-163.96 -23.96 -162.61 -22.15 -161.6 -19.81C-161.57 -19.69 -161.49 -19.65 -161.34 -19.68C-161.19 -19.71 -161.12 -19.77 -161.12 -19.86L-161.65 -26.03C-161.71 -26.36 -161.77 -26.59 -161.85 -26.72C-161.92 -26.85 -162.09 -26.96 -162.36 -27.05C-163.16 -27.41 -164.27 -27.7 -165.69 -27.92Z M-134.02 -26.36C-136.21 -27.62 -138.99 -28.25 -142.37 -28.25C-145.36 -28.25 -148.22 -27.78 -150.94 -26.83C-151.21 -26.71 -151.37 -26.59 -151.43 -26.47C-151.49 -26.36 -151.55 -26.12 -151.61 -25.76L-152.28 -19.72C-152.28 -19.66 -152.2 -19.62 -152.05 -19.59C-151.91 -19.56 -151.82 -19.59 -151.79 -19.68C-150.57 -22.23 -149.16 -24.14 -147.54 -25.41C-145.93 -26.68 -144.19 -27.32 -142.33 -27.32C-139.75 -27.32 -137.66 -26.2 -136.06 -23.97C-134.46 -21.73 -133.56 -18.73 -133.35 -14.97L-138.46 -14.97C-140 -14.97 -141.29 -15.34 -142.33 -16.08C-143.36 -16.82 -143.88 -17.75 -143.88 -18.88C-143.88 -18.94 -143.97 -18.97 -144.15 -18.97C-144.32 -18.97 -144.41 -18.94 -144.41 -18.88C-144.41 -18.2 -144.38 -17.29 -144.32 -16.17L-144.28 -13.81L-144.32 -9.28C-144.32 -9.22 -144.24 -9.2 -144.08 -9.2C-143.92 -9.2 -143.84 -9.22 -143.84 -9.28C-143.84 -10.53 -143.32 -11.58 -142.3 -12.44C-141.28 -13.3 -140.02 -13.73 -138.5 -13.73L-133.31 -13.73L-133.31 -13.42C-133.31 -9.51 -134.03 -6.4 -135.46 -4.09C-136.9 -1.78 -138.99 -0.62 -141.75 -0.62C-143.88 -0.62 -145.87 -1.29 -147.72 -2.62C-149.57 -3.95 -150.96 -5.73 -151.88 -7.95C-151.91 -8.04 -152 -8.08 -152.16 -8.06C-152.33 -8.05 -152.41 -8 -152.41 -7.91L-151.83 -1.73C-151.8 -1.41 -151.74 -1.18 -151.65 -1.04C-151.56 -0.91 -151.4 -0.78 -151.16 -0.67C-150.34 -0.34 -149.13 -0.06 -147.54 0.18C-145.96 0.41 -144.56 0.53 -143.35 0.53C-140.56 0.53 -137.98 -0.1 -135.6 -1.38C-133.21 -2.65 -131.3 -4.44 -129.86 -6.75C-128.43 -9.06 -127.71 -11.7 -127.71 -14.66C-127.71 -17.09 -128.21 -19.33 -129.22 -21.39C-130.23 -23.45 -131.83 -25.11 -134.02 -26.36Z M-88.44 -0.27C-88.44 -0.44 -88.49 -0.53 -88.58 -0.53C-89.61 -0.53 -90.37 -0.61 -90.84 -0.76C-91.31 -0.9 -91.63 -1.19 -91.8 -1.62C-91.96 -2.05 -92.04 -2.71 -92.04 -3.6L-92.04 -24.17C-92.04 -25.05 -91.96 -25.7 -91.8 -26.12C-91.63 -26.53 -91.31 -26.82 -90.82 -26.99C-90.33 -27.15 -89.58 -27.23 -88.58 -27.23C-88.49 -27.23 -88.44 -27.32 -88.44 -27.5C-88.44 -27.67 -88.49 -27.76 -88.58 -27.76L-91.06 -27.72C-92.54 -27.66 -93.68 -27.63 -94.48 -27.63C-95.67 -27.63 -97 -27.66 -98.48 -27.72L-100.66 -27.76C-100.75 -27.76 -100.79 -27.67 -100.79 -27.5C-100.79 -27.32 -100.75 -27.23 -100.66 -27.23C-99.56 -27.23 -98.76 -27.14 -98.26 -26.96C-97.76 -26.79 -97.42 -26.48 -97.24 -26.05C-97.06 -25.62 -96.97 -24.96 -96.97 -24.08L-96.97 -15.06L-111.32 -15.06L-111.32 -24.08C-111.32 -24.96 -111.22 -25.62 -111.03 -26.05C-110.84 -26.48 -110.49 -26.79 -109.99 -26.96C-109.48 -27.14 -108.7 -27.23 -107.63 -27.23C-107.57 -27.23 -107.54 -27.32 -107.54 -27.5C-107.54 -27.67 -107.57 -27.76 -107.63 -27.76L-110.08 -27.72C-111.56 -27.66 -112.86 -27.63 -113.98 -27.63C-114.81 -27.63 -115.91 -27.66 -117.27 -27.72L-119.67 -27.76C-119.76 -27.76 -119.8 -27.67 -119.8 -27.5C-119.8 -27.32 -119.76 -27.23 -119.67 -27.23C-118.66 -27.23 -117.93 -27.15 -117.47 -26.99C-117.01 -26.82 -116.69 -26.53 -116.52 -26.12C-116.34 -25.7 -116.25 -25.05 -116.25 -24.17L-116.25 -3.6C-116.25 -2.71 -116.34 -2.05 -116.52 -1.62C-116.69 -1.19 -117.02 -0.9 -117.49 -0.76C-117.97 -0.61 -118.72 -0.53 -119.76 -0.53C-119.82 -0.53 -119.85 -0.44 -119.85 -0.27C-119.85 -0.09 -119.82 0 -119.76 0C-118.72 0 -117.91 -0.01 -117.32 -0.04L-113.98 -0.09L-110.12 -0.04C-109.5 -0.01 -108.67 0 -107.63 0C-107.57 0 -107.54 -0.09 -107.54 -0.27C-107.54 -0.44 -107.57 -0.53 -107.63 -0.53C-108.73 -0.53 -109.53 -0.61 -110.03 -0.76C-110.53 -0.9 -110.87 -1.19 -111.05 -1.62C-111.23 -2.05 -111.32 -2.71 -111.32 -3.6L-111.32 -13.81L-96.97 -13.81L-96.97 -3.6C-96.97 -2.68 -97.06 -2.01 -97.24 -1.6C-97.42 -1.18 -97.76 -0.9 -98.26 -0.76C-98.76 -0.61 -99.56 -0.53 -100.66 -0.53C-100.75 -0.53 -100.79 -0.44 -100.79 -0.27C-100.79 -0.09 -100.75 0 -100.66 0C-99.74 0 -99.01 -0.01 -98.48 -0.04L-94.48 -0.09L-91.06 -0.04C-90.44 -0.01 -89.61 0 -88.58 0C-88.49 0 -88.44 -0.09 -88.44 -0.27Z M-59.92 -27.92C-61.35 -28.14 -62.71 -28.25 -64.01 -28.25C-66.91 -28.25 -69.63 -27.66 -72.16 -26.47C-74.69 -25.29 -76.72 -23.62 -78.25 -21.46C-79.77 -19.29 -80.54 -16.81 -80.54 -13.99C-80.54 -11.59 -79.97 -9.29 -78.83 -7.09C-77.69 -4.88 -75.9 -3.06 -73.47 -1.62C-71.04 -0.19 -68.02 0.53 -64.41 0.53C-61.63 0.53 -58.92 0.04 -56.28 -0.93C-56.01 -1.05 -55.84 -1.16 -55.77 -1.27C-55.7 -1.37 -55.63 -1.6 -55.57 -1.95L-54.9 -8C-54.9 -8.08 -54.99 -8.14 -55.15 -8.17C-55.31 -8.2 -55.41 -8.16 -55.44 -8.04C-56.62 -5.46 -57.96 -3.55 -59.46 -2.29C-60.95 -1.03 -62.65 -0.4 -64.54 -0.4C-66.56 -0.4 -68.36 -1.06 -69.94 -2.38C-71.53 -3.69 -72.75 -5.48 -73.63 -7.73C-74.5 -9.98 -74.94 -12.47 -74.94 -15.19C-74.94 -18.83 -74.14 -21.74 -72.54 -23.9C-70.94 -26.06 -68.67 -27.14 -65.74 -27.14C-63.52 -27.14 -61.57 -26.5 -59.88 -25.23C-58.19 -23.96 -56.84 -22.15 -55.84 -19.81C-55.81 -19.69 -55.72 -19.65 -55.57 -19.68C-55.42 -19.71 -55.35 -19.77 -55.35 -19.86L-55.88 -26.03C-55.94 -26.36 -56.01 -26.59 -56.08 -26.72C-56.16 -26.85 -56.33 -26.96 -56.59 -27.05C-57.39 -27.41 -58.5 -27.7 -59.92 -27.92Z M-39.65 -1.4C-37.5 -0.11 -35.05 0.53 -32.29 0.53C-29.51 0.53 -26.93 -0.12 -24.54 -1.42C-22.16 -2.72 -20.26 -4.5 -18.83 -6.75C-17.41 -9 -16.7 -11.48 -16.7 -14.17C-16.7 -16.6 -17.27 -18.89 -18.41 -21.06C-19.55 -23.22 -21.19 -24.96 -23.32 -26.28C-25.45 -27.59 -27.93 -28.25 -30.74 -28.25C-33.26 -28.25 -35.72 -27.7 -38.14 -26.61C-40.55 -25.51 -42.53 -23.88 -44.07 -21.7C-45.61 -19.52 -46.38 -16.91 -46.38 -13.86C-46.38 -11.25 -45.79 -8.85 -44.62 -6.64C-43.45 -4.43 -41.79 -2.69 -39.65 -1.4ZM-26.36 -2.02C-27.68 -1.06 -29.17 -0.58 -30.83 -0.58C-32.75 -0.58 -34.48 -1.21 -36 -2.49C-37.53 -3.76 -38.73 -5.53 -39.6 -7.8C-40.47 -10.06 -40.91 -12.63 -40.91 -15.5C-40.91 -19.15 -40.19 -21.98 -38.74 -24.01C-37.28 -26.04 -35.21 -27.05 -32.52 -27.05C-30.41 -27.05 -28.58 -26.45 -27.01 -25.23C-25.44 -24.02 -24.24 -22.34 -23.41 -20.19C-22.58 -18.04 -22.17 -15.61 -22.17 -12.88C-22.17 -10.31 -22.54 -8.09 -23.28 -6.24C-24.02 -4.39 -25.05 -2.98 -26.36 -2.02Z M21.99 -0.27C21.99 -0.44 21.94 -0.53 21.86 -0.53C20.85 -0.53 20.11 -0.61 19.63 -0.76C19.16 -0.9 18.83 -1.19 18.66 -1.62C18.48 -2.05 18.39 -2.71 18.39 -3.6L18.39 -23.63C18.39 -24.96 18.62 -25.9 19.08 -26.43C19.54 -26.96 20.46 -27.23 21.86 -27.23C21.94 -27.23 21.99 -27.32 21.99 -27.5C21.99 -27.67 21.94 -27.76 21.86 -27.76L20.39 -27.76C15.24 -27.67 10.69 -27.63 6.75 -27.63C2.4 -27.63 -1.76 -27.66 -5.73 -27.72C-6.68 -27.75 -7.66 -27.76 -8.66 -27.76C-8.75 -27.76 -8.8 -27.67 -8.8 -27.5C-8.8 -27.32 -8.75 -27.23 -8.66 -27.23C-7.27 -27.23 -6.35 -26.96 -5.91 -26.43C-5.46 -25.9 -5.24 -24.96 -5.24 -23.63L-5.24 -3.6C-5.24 -2.71 -5.33 -2.05 -5.51 -1.62C-5.69 -1.19 -6.01 -0.9 -6.49 -0.76C-6.96 -0.61 -7.71 -0.53 -8.75 -0.53C-8.81 -0.53 -8.84 -0.44 -8.84 -0.27C-8.84 -0.09 -8.81 0 -8.75 0C-7.74 0 -6.94 -0.01 -6.35 -0.04L-3.07 -0.09L0.62 -0.04C1.24 -0.01 2.07 0 3.11 0C3.2 0 3.24 -0.09 3.24 -0.27C3.24 -0.44 3.2 -0.53 3.11 -0.53C2.07 -0.53 1.33 -0.61 0.87 -0.76C0.41 -0.9 0.1 -1.18 -0.07 -1.6C-0.23 -2.01 -0.31 -2.68 -0.31 -3.6L-0.31 -23.63C-0.31 -24.64 -0.27 -25.31 -0.2 -25.63C-0.13 -25.96 0.06 -26.16 0.36 -26.25C0.65 -26.34 1.24 -26.39 2.13 -26.39L11.24 -26.39C12.04 -26.39 12.57 -26.34 12.84 -26.25C13.1 -26.16 13.27 -25.96 13.35 -25.63C13.42 -25.31 13.46 -24.64 13.46 -23.63L13.46 -3.6C13.46 -2.71 13.38 -2.05 13.22 -1.62C13.05 -1.19 12.73 -0.9 12.26 -0.76C11.79 -0.61 11.05 -0.53 10.04 -0.53C9.95 -0.53 9.91 -0.44 9.91 -0.27C9.91 -0.09 9.95 0 10.04 0C11.08 0 11.9 -0.01 12.53 -0.04L16.21 -0.09L19.46 -0.04C20.05 -0.01 20.85 0 21.86 0C21.94 0 21.99 -0.09 21.99 -0.27Z M37.62 -1.71C37.42 -2.14 37.31 -2.83 37.31 -3.78L37.31 -24.08C37.31 -25.2 37.46 -25.96 37.76 -26.34C38.05 -26.73 38.62 -26.92 39.45 -26.92C41.34 -26.92 42.78 -26.28 43.78 -25.01C44.77 -23.74 45.27 -21.93 45.27 -19.59C45.27 -17.25 44.81 -15.44 43.91 -14.17C43.01 -12.9 41.87 -12.26 40.51 -12.26C39.95 -12.26 39.45 -12.32 39 -12.44C38.94 -12.47 38.89 -12.44 38.85 -12.35C38.8 -12.26 38.78 -12.17 38.78 -12.08C38.78 -11.93 38.81 -11.86 38.87 -11.86C39.46 -11.71 40.16 -11.64 40.96 -11.64C42.53 -11.64 44.06 -11.96 45.55 -12.62C47.05 -13.27 48.27 -14.23 49.22 -15.5C50.17 -16.78 50.64 -18.33 50.64 -20.17C50.64 -22.8 49.77 -24.75 48.02 -26.01C46.27 -27.27 43.89 -27.9 40.87 -27.9C40.1 -27.9 39.42 -27.88 38.82 -27.85C38.23 -27.82 37.74 -27.79 37.36 -27.76C36.38 -27.67 35.54 -27.63 34.83 -27.63C34.03 -27.63 32.95 -27.66 31.58 -27.72L29.23 -27.76C29.14 -27.76 29.1 -27.67 29.1 -27.5C29.1 -27.32 29.14 -27.23 29.23 -27.23C30.15 -27.23 30.83 -27.15 31.27 -26.99C31.72 -26.82 32.01 -26.53 32.16 -26.12C32.31 -25.7 32.38 -25.05 32.38 -24.17L32.38 -3.6C32.38 -2.71 32.31 -2.05 32.16 -1.62C32.01 -1.19 31.72 -0.9 31.29 -0.76C30.87 -0.61 30.18 -0.53 29.23 -0.53C29.14 -0.53 29.1 -0.44 29.1 -0.27C29.1 -0.09 29.14 0 29.23 0C30.24 0 31.04 -0.01 31.63 -0.04L34.87 -0.09L38.74 -0.04C39.42 -0.01 40.36 0 41.58 0C41.67 0 41.71 -0.09 41.71 -0.27C41.71 -0.44 41.67 -0.53 41.58 -0.53C40.3 -0.53 39.38 -0.62 38.8 -0.8C38.22 -0.98 37.83 -1.28 37.62 -1.71Z M88.84 -0.27C88.84 -0.44 88.8 -0.53 88.71 -0.53C87.7 -0.53 86.96 -0.61 86.49 -0.76C86.01 -0.9 85.69 -1.19 85.51 -1.62C85.33 -2.05 85.24 -2.71 85.24 -3.6L85.24 -24.17C85.24 -25.05 85.33 -25.7 85.51 -26.12C85.69 -26.53 86.01 -26.82 86.49 -26.99C86.96 -27.15 87.7 -27.23 88.71 -27.23C88.8 -27.23 88.84 -27.32 88.84 -27.5C88.84 -27.67 88.8 -27.76 88.71 -27.76L86.22 -27.72C84.74 -27.66 83.6 -27.63 82.8 -27.63C81.62 -27.63 80.28 -27.66 78.8 -27.72L76.63 -27.76C76.54 -27.76 76.49 -27.67 76.49 -27.5C76.49 -27.32 76.54 -27.23 76.63 -27.23C77.72 -27.23 78.52 -27.14 79.03 -26.96C79.53 -26.79 79.87 -26.48 80.05 -26.05C80.22 -25.62 80.31 -24.96 80.31 -24.08L80.31 -22.21L66.5 -7.46L66.5 -24.08C66.5 -24.96 66.59 -25.62 66.79 -26.05C66.98 -26.48 67.33 -26.79 67.83 -26.96C68.33 -27.14 69.12 -27.23 70.19 -27.23C70.24 -27.23 70.27 -27.32 70.27 -27.5C70.27 -27.67 70.24 -27.76 70.19 -27.76L67.74 -27.72C66.26 -27.66 64.96 -27.63 63.83 -27.63C63 -27.63 61.91 -27.66 60.55 -27.72L58.15 -27.76C58.06 -27.76 58.01 -27.67 58.01 -27.5C58.01 -27.32 58.06 -27.23 58.15 -27.23C59.15 -27.23 59.89 -27.15 60.35 -26.99C60.81 -26.82 61.12 -26.53 61.3 -26.12C61.48 -25.7 61.57 -25.05 61.57 -24.17L61.57 -3.6C61.57 -2.71 61.48 -2.05 61.3 -1.62C61.12 -1.19 60.8 -0.9 60.32 -0.76C59.85 -0.61 59.09 -0.53 58.06 -0.53C58 -0.53 57.97 -0.44 57.97 -0.27C57.97 -0.09 58 0 58.06 0C59.09 0 59.91 -0.01 60.5 -0.04L63.83 -0.09L67.7 -0.04C68.32 -0.01 69.15 0 70.19 0C70.24 0 70.27 -0.09 70.27 -0.27C70.27 -0.44 70.24 -0.53 70.19 -0.53C69.09 -0.53 68.29 -0.61 67.79 -0.76C67.28 -0.9 66.94 -1.19 66.76 -1.62C66.59 -2.05 66.5 -2.71 66.5 -3.6L66.5 -5.64L80.31 -20.43L80.31 -3.6C80.31 -2.68 80.22 -2.01 80.05 -1.6C79.87 -1.18 79.53 -0.9 79.03 -0.76C78.52 -0.61 77.72 -0.53 76.63 -0.53C76.54 -0.53 76.49 -0.44 76.49 -0.27C76.49 -0.09 76.54 0 76.63 0C77.54 0 78.27 -0.01 78.8 -0.04L82.8 -0.09L86.22 -0.04C86.84 -0.01 87.67 0 88.71 0C88.8 0 88.84 -0.09 88.84 -0.27Z M115.69 -13.73C113.7 -15.03 111.17 -15.68 108.12 -15.68C106.94 -15.68 105.75 -15.59 104.57 -15.41L104.57 -23.9C104.57 -24.99 104.74 -25.74 105.08 -26.14C105.42 -26.54 106.06 -26.74 107.01 -26.74L108.88 -26.74C110.65 -26.74 112.14 -26.17 113.34 -25.03C114.54 -23.89 115.36 -22.18 115.81 -19.9C115.86 -19.81 115.97 -19.77 116.12 -19.77C116.26 -19.77 116.34 -19.81 116.34 -19.9L115.98 -26.65C115.98 -27.16 115.93 -27.47 115.83 -27.59C115.72 -27.7 115.47 -27.76 115.05 -27.76L96.44 -27.76C96.38 -27.76 96.35 -27.67 96.35 -27.5C96.35 -27.32 96.38 -27.23 96.44 -27.23C97.36 -27.23 98.04 -27.15 98.48 -26.99C98.93 -26.82 99.22 -26.53 99.37 -26.12C99.52 -25.7 99.59 -25.05 99.59 -24.17L99.59 -3.6C99.59 -2.71 99.51 -2.05 99.35 -1.62C99.18 -1.19 98.89 -0.9 98.46 -0.76C98.03 -0.61 97.34 -0.53 96.39 -0.53C96.3 -0.53 96.26 -0.44 96.26 -0.27C96.26 -0.09 96.3 0 96.39 0C97.4 0 98.2 -0.01 98.79 -0.04L102.04 -0.09C102.81 -0.09 103.51 -0.07 104.15 -0.04C104.78 -0.01 105.32 0.01 105.77 0.04C106.89 0.13 107.85 0.18 108.65 0.18C110.55 0.18 112.27 -0.19 113.81 -0.91C115.35 -1.64 116.55 -2.63 117.4 -3.89C118.26 -5.15 118.69 -6.54 118.69 -8.08C118.69 -10.54 117.69 -12.42 115.69 -13.73ZM112.12 -2.47C111.2 -1.44 109.76 -0.93 107.81 -0.93C106.51 -0.93 105.64 -1.15 105.21 -1.6C104.78 -2.04 104.57 -2.71 104.57 -3.6L104.57 -14.26C105.19 -14.38 105.86 -14.44 106.57 -14.44C108.76 -14.44 110.46 -13.83 111.67 -12.62C112.89 -11.4 113.5 -9.52 113.5 -6.97C113.5 -4.99 113.04 -3.49 112.12 -2.47Z M134.35 -1.4C136.5 -0.11 138.95 0.53 141.7 0.53C144.49 0.53 147.07 -0.12 149.45 -1.42C151.84 -2.72 153.74 -4.5 155.16 -6.75C156.58 -9 157.29 -11.48 157.29 -14.17C157.29 -16.6 156.72 -18.89 155.58 -21.06C154.44 -23.22 152.81 -24.96 150.68 -26.28C148.54 -27.59 146.07 -28.25 143.26 -28.25C140.74 -28.25 138.28 -27.7 135.86 -26.61C133.45 -25.51 131.47 -23.88 129.93 -21.7C128.39 -19.52 127.62 -16.91 127.62 -13.86C127.62 -11.25 128.21 -8.85 129.38 -6.64C130.55 -4.43 132.2 -2.69 134.35 -1.4ZM147.63 -2.02C146.32 -1.06 144.83 -0.58 143.17 -0.58C141.24 -0.58 139.52 -1.21 137.99 -2.49C136.47 -3.76 135.27 -5.53 134.4 -7.8C133.52 -10.06 133.09 -12.63 133.09 -15.5C133.09 -19.15 133.81 -21.98 135.26 -24.01C136.71 -26.04 138.79 -27.05 141.48 -27.05C143.58 -27.05 145.42 -26.45 146.99 -25.23C148.56 -24.02 149.76 -22.34 150.59 -20.19C151.42 -18.04 151.83 -15.61 151.83 -12.88C151.83 -10.31 151.46 -8.09 150.72 -6.24C149.98 -4.39 148.95 -2.98 147.63 -2.02Z M173.82 -1.71C173.61 -2.14 173.51 -2.83 173.51 -3.78L173.51 -24.08C173.51 -25.2 173.66 -25.96 173.95 -26.34C174.25 -26.73 174.81 -26.92 175.64 -26.92C177.54 -26.92 178.98 -26.28 179.97 -25.01C180.96 -23.74 181.46 -21.93 181.46 -19.59C181.46 -17.25 181.01 -15.44 180.11 -14.17C179.2 -12.9 178.07 -12.26 176.71 -12.26C176.14 -12.26 175.64 -12.32 175.2 -12.44C175.14 -12.47 175.09 -12.44 175.04 -12.35C175 -12.26 174.97 -12.17 174.97 -12.08C174.97 -11.93 175 -11.86 175.06 -11.86C175.66 -11.71 176.35 -11.64 177.15 -11.64C178.72 -11.64 180.25 -11.96 181.75 -12.62C183.24 -13.27 184.47 -14.23 185.41 -15.5C186.36 -16.78 186.83 -18.33 186.83 -20.17C186.83 -22.8 185.96 -24.75 184.21 -26.01C182.47 -27.27 180.08 -27.9 177.06 -27.9C176.29 -27.9 175.61 -27.88 175.02 -27.85C174.43 -27.82 173.94 -27.79 173.55 -27.76C172.58 -27.67 171.73 -27.63 171.02 -27.63C170.22 -27.63 169.14 -27.66 167.78 -27.72L165.42 -27.76C165.34 -27.76 165.29 -27.67 165.29 -27.5C165.29 -27.32 165.34 -27.23 165.42 -27.23C166.34 -27.23 167.02 -27.15 167.47 -26.99C167.91 -26.82 168.21 -26.53 168.36 -26.12C168.5 -25.7 168.58 -25.05 168.58 -24.17L168.58 -3.6C168.58 -2.71 168.5 -2.05 168.36 -1.62C168.21 -1.19 167.92 -0.9 167.49 -0.76C167.06 -0.61 166.37 -0.53 165.42 -0.53C165.34 -0.53 165.29 -0.44 165.29 -0.27C165.29 -0.09 165.34 0 165.42 0C166.43 0 167.23 -0.01 167.82 -0.04L171.07 -0.09L174.93 -0.04C175.61 -0.01 176.56 0 177.77 0C177.86 0 177.91 -0.09 177.91 -0.27C177.91 -0.44 177.86 -0.53 177.77 -0.53C176.5 -0.53 175.57 -0.62 175 -0.8C174.42 -0.98 174.03 -1.28 173.82 -1.71Z"/></g></g></svg>